<svg xmlns="http://www.w3.org/2000/svg" viewBox="0 0 64 64" width="64" height="64">
  <!-- ScaleLabs favicon — mark inside navy circle -->
  <circle cx="32" cy="32" r="32" fill="#0F172A"/>
  <!-- Monoline mark scaled to fit -->
  <g transform="translate(30,36) scale(0.28)">
    <path d="M -12,2
             C -18,2 -22,-2 -22,-8
             C -22,-16 -14,-22 -4,-22
             C 10,-22 20,-14 20,-2
             C 20,12 8,22 -8,22
             C -26,22 -40,10 -40,-8
             C -40,-30 -24,-46 0,-46
             C 28,-46 48,-32 62,-18
             C 72,-8 78,0 80,4"
          fill="none" stroke="#CBD5E1" stroke-width="7" stroke-linecap="round"/>
    <path d="M -28,32
             C -8,28 14,18 34,6
             C 50,-4 64,-10 76,-8"
          fill="none" stroke="#CBD5E1" stroke-width="7" stroke-linecap="round"/>
  </g>
</svg>